<svg width="174" height="93" viewBox="0 0 174 93" fill="none" xmlns="http://www.w3.org/2000/svg">
<path d="M84.5586 23.6465H90.5938L90.1836 26H81.2871L83.7578 11.7812H86.6191L84.5586 23.6465ZM101.277 19.8379H95.8281L95.1641 23.6465H101.57L101.16 26H91.8926L94.3633 11.7812H103.611L103.191 14.1543H96.8145L96.2188 17.543H101.688L101.277 19.8379ZM108.621 22.4453L113.406 11.7812H116.688L109.666 26H106.678L104.119 11.7812H107.195L108.621 22.4453ZM125.086 19.8379H119.637L118.973 23.6465H125.379L124.969 26H115.701L118.172 11.7812H127.42L127 14.1543H120.623L120.027 17.543H125.496L125.086 19.8379ZM129.988 23.6465H136.023L135.613 26H126.717L129.188 11.7812H132.049L129.988 23.6465ZM155.232 11.7812L153.631 21.1562C153.41 22.7253 152.758 23.9655 151.678 24.877C150.597 25.7884 149.256 26.2311 147.654 26.2051C146.652 26.1855 145.779 25.9674 145.037 25.5508C144.301 25.1276 143.758 24.5352 143.406 23.7734C143.055 23.0052 142.934 22.1361 143.045 21.166L144.637 11.7812H147.498L145.906 21.1758C145.861 21.5404 145.857 21.8822 145.896 22.2012C146.027 23.2559 146.655 23.8027 147.781 23.8418C148.589 23.8678 149.249 23.6465 149.764 23.1777C150.278 22.709 150.61 22.0384 150.76 21.166L152.361 11.7812H155.232ZM158.875 20.9902L157.996 26H155.135L157.605 11.7812L162.586 11.791C164.122 11.791 165.33 12.2174 166.209 13.0703C167.088 13.9232 167.472 15.0365 167.361 16.4102C167.257 17.8034 166.674 18.9167 165.613 19.75C164.559 20.5833 163.211 21 161.57 21L158.875 20.9902ZM159.275 18.6172L161.658 18.6367C162.426 18.6367 163.064 18.4382 163.572 18.041C164.08 17.6439 164.383 17.1068 164.48 16.4297C164.578 15.7526 164.467 15.2122 164.148 14.8086C163.836 14.4049 163.37 14.1901 162.752 14.1641L160.057 14.1543L159.275 18.6172ZM171.15 21.6348H168.855L170.242 11.7812H173.182L171.15 21.6348ZM167.947 24.7207C167.934 24.291 168.071 23.9297 168.357 23.6367C168.644 23.3372 169.008 23.181 169.451 23.168C169.868 23.1549 170.229 23.2852 170.535 23.5586C170.841 23.8255 171.001 24.1771 171.014 24.6133C171.027 25.043 170.89 25.4076 170.604 25.707C170.317 26.0065 169.949 26.1628 169.5 26.1758C169.044 26.1758 168.67 26.0326 168.377 25.7461C168.09 25.4596 167.947 25.1178 167.947 24.7207Z" fill="#6B7AFF"/>
<path d="M27.3 13.4664C27.3 12.2016 28.392 11.16 29.718 11.16C31.044 11.16 32.136 12.2016 32.136 13.4664C32.136 14.7312 31.044 15.7728 29.718 15.7728C28.392 15.6984 27.3 14.7312 27.3 13.4664ZM36.894 24.7008V19.1952C36.894 17.9304 35.802 16.8888 34.476 16.8888V27.528L36.894 24.7008ZM24.882 33.9264V16.8144C23.556 16.8144 22.464 17.856 22.464 19.1208V31.6944C22.542 32.9592 23.556 33.9264 24.882 33.9264ZM32.916 29.388H29.718H26.13V31.6944V37.4976L32.916 29.388ZM33.306 25.9656V16.8888H26.13V26.04C26.13 27.9 27.768 29.4624 29.718 29.4624C31.668 29.4624 33.306 27.9 33.306 25.9656ZM74.1 18.6C74.1 22.692 70.59 26.04 66.3 26.04H58.5L27.3 63.24H19.5H11.7C7.41002 63.24 3.90002 59.892 3.90002 55.8C3.90002 51.708 7.41002 48.36 11.7 48.36H19.5L50.7 11.16H58.5H66.3C70.59 11.16 74.1 14.508 74.1 18.6ZM62.4 19.344C62.4 18.5256 61.698 17.856 60.84 17.856H54.21L23.01 55.056H17.16C16.302 55.056 15.6 55.7256 15.6 56.544H23.79L54.99 19.344H62.4Z" fill="#FF9C9C"/>
</svg>
